#!OML:ASF G:\ViconDB\ViconDB\414\test\team2\shane.ASF
:FULLY-SPECIFIED
:DEGREES
143
root 2.68162 17.0074 -10.3504 -9.08543 3.40525 -5.79669
lowerback 7.57084 5.39208 5.61487
upperback 2.58688 7.56305 -1.77605
thorax -0.560705 3.84129 -5.50699
lowerneck -13.1175 -10.9656 -11.5396
upperneck 22.392 -16.6141 14.6647
head 11.7696 -7.03902 4.72151
rclavicle -4.26393e-014 0
rhumerus -21.7894 18.0257 -95.8695
rradius 37.8505
rwrist 30.7844
rhand -32.4279 -16.1963
rfingers 7.12502
rthumb -5.66189 -46.1006
lclavicle -4.26393e-014 0
lhumerus -48.4441 -17.9714 90.7777
lradius 24.2695
lwrist -9.5644
lhand -34.2097 7.31622
lfingers 7.12502
lthumb -7.38195 37.1674
rfemur 29.3561 -13.1187 23.8106
rtibia 9.54166e-015
rfoot -7.96177 3.59101
rtoes -13.2572
lfemur -24.2351 5.39687 -8.94423
ltibia 37.0748
lfoot -27.2339 -16.3753
ltoes -12.7197
144
root 2.69357 16.9939 -10.2003 -8.86409 3.11106 -5.93361
lowerback 7.53911 5.60501 5.86576
upperback 2.43193 7.86479 -1.86699
thorax -0.615798 3.98898 -5.75804
lowerneck -13.1643 -11.0705 -11.6997
upperneck 22.2812 -16.7054 14.6547
head 11.7655 -7.09572 4.72025
rclavicle -4.50744e-014 1.11319e-014
rhumerus -21.9475 19.1349 -95.9604
rradius 37.7639
rwrist 30.8067
rhand -32.2829 -15.8312
rfingers 7.12502
rthumb -5.52188 -45.7392
lclavicle -4.50744e-014 1.11319e-014
lhumerus -49.0483 -17.9707 90.748
lradius 24.7619
lwrist -9.31647
lhand -34.1915 7.47859
lfingers 7.12502
lthumb -7.36445 37.3304
rfemur 29.689 -12.8694 23.906
rtibia -3.81667e-014
rfoot -8.54097 3.69816
rtoes -13.3429
lfemur -24.758 5.75735 -9.1808
ltibia 36.6663
lfoot -27.8144 -17.0463
ltoes -12.9491
145
root 2.70677 16.964 -10.056 -8.6122 2.93296 -6.09355
lowerback 7.49069 5.71258 6.12824
upperback 2.31863 8.02603 -1.91642
thorax -0.640041 4.06782 -5.96111
lowerneck -13.1966 -11.1442 -11.9106
upperneck 22.0839 -16.7353 14.6751
head 11.724 -7.12946 4.74891
rclavicle 1.7344e-014 1.43125e-014
rhumerus -22.0667 20.7099 -96.1495
rradius 37.816
rwrist 29.853
rhand -32.3882 -15.7321
rfingers 7.12502
rthumb -5.62355 -45.6375
lclavicle 1.7344e-014 1.43125e-014
lhumerus -49.2419 -17.3074 90.2978
lradius 25.0574
lwrist -9.13491
lhand -33.9585 7.24757
lfingers 7.12502
lthumb -7.13949 37.1071
rfemur 30.0115 -12.736 24.0177
rtibia -5.40694e-014
rfoot -9.30066 3.80608
rtoes -13.9266
lfemur -25.3801 5.97199 -9.41917
ltibia 36.4106
lfoot -28.2313 -17.5311
ltoes -12.8116
146
root 2.7159 16.9286 -9.91171 -8.42908 2.87333 -6.30787
lowerback 7.52608 5.81888 6.42136
upperback 2.19277 8.19241 -2.0271
thorax -0.70751 4.14776 -6.25558
lowerneck -13.2877 -11.2373 -12.0409
upperneck 21.9215 -16.8633 14.8698
head 11.736 -7.17792 4.80952
rclavicle 1.06499e-013 4.77083e-015
rhumerus -22.2535 21.8208 -96.3486
rradius 37.786
rwrist 29.7757
rhand -32.3149 -15.2346
rfingers 7.12502
rthumb -5.55279 -45.1419
lclavicle 1.06499e-013 4.77083e-015
lhumerus -49.5396 -16.8192 89.7662
lradius 25.4887
lwrist -8.94732
lhand -33.9946 7.17449
lfingers 7.12502
lthumb -7.1744 37.0329
rfemur 30.3872 -12.7374 24.1666
rtibia -1.08139e-013
rfoot -10.0028 3.9078
rtoes -13.9525
lfemur -25.9781 6.44652 -9.65276
ltibia 36.262
lfoot -28.6113 -18.1438
ltoes -12.7263
147
root 2.72235 16.8842 -9.77273 -8.17557 2.90897 -6.42333
lowerback 7.62784 5.9157 6.57386
upperback 2.02045 8.34038 -2.15127
thorax -0.87941 4.21137 -6.49924
lowerneck -13.1472 -11.3448 -12.1906
upperneck 21.6394 -17.0055 15.0518
head 11.6595 -7.252 4.87342
rclavicle -2.24627e-014 1.11319e-014
rhumerus -22.4643 23.0498 -96.625
rradius 37.9482
rwrist 28.9128
rhand -32.0537 -15.4954
rfingers 7.12502
rthumb -5.30062 -45.4091
lclavicle -2.24627e-014 1.11319e-014
lhumerus -50.0078 -16.4918 89.4392
lradius 26.1635
lwrist -8.93322
lhand -34.0069 7.35185
lfingers 7.12502
lthumb -7.18627 37.2098
rfemur 30.6917 -12.8125 24.2211
rtibia -7.63333e-014
rfoot -10.7998 3.94963
rtoes -13.9142
lfemur -26.6118 6.84836 -10.0005
ltibia 36.1806
lfoot -28.9678 -18.4813
ltoes -12.7812
